<?xml version="1.0" encoding="UTF-8"?>
<svg id="Capa_1" data-name="Capa 1" xmlns="http://www.w3.org/2000/svg" viewBox="0 0 238 99">
  <defs>
    <style>
      .cls-1 {
        fill: #fe473c;
      }
    </style>
  </defs>
  <path class="cls-1" d="M122.22,53.89c-11.24,22.44-40.29,30.18-60.16,24.35-21.57-6.32-33.25-26.38-35.5-41.7,1.31,1.04,2.44,1.91,3.54,2.82,9.65,7.92,18.14,8.18,28.17,.62,7.01-5.29,13.71-11.01,20.88-16.07,7.09-5,15.14-6.67,23.35-3.21,4.34,1.83,8.18,4.88,12.17,7.48,1.71,1.12,3.36,2.38,4.82,3.81,2.01,1.97,3.6,1.47,5.57-.13,3.48-2.83,7.07-5.56,10.78-8.07,9.4-6.35,19.14-6.51,28.56-.34,6.02,3.95,11.53,8.68,17.25,13.08,1.78,1.37,3.49,2.84,5.32,4.14,9.41,6.7,18.07,6.35,27.02-1.05,1.11-.91,2.17-1.88,3.39-2.94,1.34,13.52-16.38,35.28-33.08,40.91-21.92,7.39-50.96-1.58-62.09-23.7Z"/>
</svg>